<svg width="39" height="40" viewBox="0 0 39 40" fill="none" xmlns="http://www.w3.org/2000/svg">
<path d="M34.3431 0.852417H4.3029C3.16474 0.852417 2.07319 1.30725 1.26838 2.11687C0.463579 2.92649 0.0114441 4.02456 0.0114441 5.16953V35.3893C0.0114441 36.5343 0.463579 37.6324 1.26838 38.442C2.07319 39.2516 3.16474 39.7064 4.3029 39.7064H34.3431C35.4813 39.7064 36.5728 39.2516 37.3776 38.442C38.1824 37.6324 38.6346 36.5343 38.6346 35.3893V5.16953C38.6346 4.02456 38.1824 2.92649 37.3776 2.11687C36.5728 1.30725 35.4813 0.852417 34.3431 0.852417ZM34.3431 35.3893H4.3029V5.16953H34.3431V35.3893ZM12.8858 31.0722H8.59436V20.2794H12.8858V31.0722ZM21.4687 31.0722H17.1773V9.48664H21.4687V31.0722ZM30.0517 31.0722H25.7602V15.9623H30.0517V31.0722Z" fill="#444444"/>
</svg>
